<svg width="203" height="100" viewBox="74.5 43 109.5 54" fill="none" xmlns="http://www.w3.org/2000/svg">
<g clip-path="url(#clip0_1_827)">
<path d="M90.2695 62.9238C81.5607 62.9238 74.5 69.8423 74.5 78.5622C74.5 90.6193 90.3127 97.0172 90.2695 97C90.2264 97.0172 106.039 90.6193 106.039 78.5622C106.039 69.8423 98.9783 62.9216 90.2695 62.9216V62.9238ZM90.2695 84.8932C86.9732 84.8932 84.3004 82.2169 84.3004 78.9164C84.3004 75.616 86.9732 72.9397 90.2695 72.9397C93.5658 72.9397 96.2386 75.616 96.2386 78.9164C96.2386 82.2169 93.5658 84.8932 90.2695 84.8932Z" fill="#000000"/>
<path d="M93.8206 42.9998C90.1403 42.9998 87.5775 45.5745 87.1741 48.605C82.2663 47.2485 78.4221 50.9702 78.4221 55.0914C78.4221 58.2342 80.5729 60.7722 83.455 61.5974C85.7762 62.2605 89.9505 61.768 89.9505 61.768C89.9289 60.7528 90.863 59.6361 92.304 58.623C96.4007 55.7373 99.6085 54.3765 100.103 50.441C100.622 46.3262 97.5699 42.9998 93.8206 42.9998Z" fill="#000000"/>
<path d="M137.339 68.3604C134.008 69.4101 128.242 69.9653 122.825 69.9653V63.3686H134.01V58.4568H116.823V75.186C126.222 75.186 134.429 74.0498 137.893 72.9763L137.337 68.3582L137.339 68.3604Z" fill="#000000"/>
<path d="M145.237 56.4995H139.246V75.73H145.237V69.7014H150.069V64.4548H145.237V56.4995Z" fill="#000000"/>
<path d="M134.11 75.6846C127.763 75.6846 123.101 79.1881 123.101 84.3181C123.101 89.4481 127.761 92.9516 134.11 92.9516C140.458 92.9516 145.118 89.4481 145.118 84.3181C145.118 79.1881 140.458 75.6846 134.11 75.6846ZM134.11 88.1542C131.247 88.1542 129.103 86.7805 129.103 84.3159C129.103 81.8514 131.249 80.4776 134.11 80.4776C136.97 80.4776 139.117 81.8514 139.117 84.3159C139.117 86.7805 136.97 88.1542 134.11 88.1542Z" fill="#000000"/>
<path d="M161.736 78.2354H155.611V91.245H179.954V86.0956H161.736V78.2354Z" fill="#000000"/>
<path d="M179.194 58.1042H155.334V63.2537H173.181C173.181 64.5324 173.24 67.5823 172.657 71.0383H150.774V76.3649H184.002V71.0383H178.076C178.861 66.6708 179.096 63.2666 179.196 58.1042H179.194Z" fill="#000000"/>
</g>
<defs>
<clipPath id="clip0_1_827">
<rect width="109.5" height="54" fill="white" transform="translate(74.5 43)"/>
</clipPath>
</defs>
</svg>
