<?xml version="1.0" encoding="UTF-8"?>
<svg xmlns="http://www.w3.org/2000/svg" width="2600" height="7332" viewBox="0 0 2600 7332">
<defs>
  <linearGradient id="fadeX" x1="108" y1="0" x2="2492" y2="0" gradientUnits="userSpaceOnUse">
    <stop offset="0%" stop-color="#d4daed" stop-opacity="0"/>
    <stop offset="1.2584%" stop-color="#d4daed" stop-opacity="1"/>
    <stop offset="98.7416%" stop-color="#d4daed" stop-opacity="1"/>
    <stop offset="100%" stop-color="#d4daed" stop-opacity="0"/>
  </linearGradient>
  <linearGradient id="fadeY" x1="0" y1="0" x2="0" y2="1">
    <stop offset="0" stop-color="#d4daed" stop-opacity="0"/>
    <stop offset="0.03" stop-color="#d4daed" stop-opacity="1"/>
    <stop offset="0.97" stop-color="#d4daed" stop-opacity="1"/>
    <stop offset="1" stop-color="#d4daed" stop-opacity="0"/>
  </linearGradient>
</defs>
<rect x="0" y="0" width="2600" height="7332" fill="#ffffff"/>
<style>
@import url("https://fonts.googleapis.com/css2?family=Special+Gothic:wdth,wght@75..125,400..700&amp;display=swap");
@import url("https://cdn.jsdelivr.net/gh/orioncactus/pretendard@v1.3.9/dist/web/variable/pretendardvariable-dynamic-subset.min.css");
.display { font-family: "Special Gothic", "Arial Black", sans-serif; font-stretch: 112.5%; }
.body { font-family: "Pretendard Variable", Pretendard, "Apple SD Gothic Neo", "Noto Sans KR", Arial, sans-serif; }
.mono { font-family: "JetBrains Mono", "SFMono-Regular", Menlo, monospace; }
text { letter-spacing: 0; }
</style>
<g><svg x="168" y="160" width="1162" height="104" viewBox="0 0 955.042 85.4196" fill="none" xmlns="http://www.w3.org/2000/svg" overflow="visible">
<g id="a" clip-path="url(#clip0_0_4)">
<path id="Vector" d="M459.008 63.2145H357.733L372.865 22.0068H474.084L482.008 0.238579H380.852H344.786L313.505 85.4198H349.579H450.901L459.008 63.2145Z" fill="#10183d"/>
<path id="Vector_2" d="M765.967 85.1814L797.24 0.000189562H761.174L739.215 59.7971L705.399 0.326037L656.959 0.000189562L625.686 85.1814H661.759L682.9 27.6098L715.723 85.3403L765.967 85.1814Z" fill="#10183d"/>
<path id="Vector_3" d="M607.905 85.4198H608.072L616.179 63.2145H616.059L631.183 22.0068H631.255L639.179 0.238579H499.096L467.815 85.4198H607.905ZM579.978 63.2145H512.043L527.175 22.0068H595.118L579.986 63.2145H579.978Z" fill="#10183d"/>
<g id="Group">
<path id="Vector_4" d="M156.445 85.4192H296.702L304.626 63.659H164.44L156.445 85.4192Z" fill="#10183d"/>
<path id="Vector_5" d="M168.415 53.4702H307.949L315.872 31.71H176.402L168.415 53.4702Z" fill="#10183d"/>
<path id="Vector_6" d="M187.664 0.237972L179.669 22.0061H319.926L327.85 0.237972H187.664Z" fill="#10183d"/>
</g>
<g id="Group_2">
<path id="Vector_7" d="M31.2817 0.238569H31.2738L23.2866 22.0067L0.000422291 85.4197H36.0741L59.3602 22.0067H163.441L171.364 0.238569H31.2817Z" fill="#10183d"/>
<path id="Vector_8" d="M61.7002 54.4638H139.005L147.032 32.4254H69.7907L61.7002 54.4638Z" fill="#10183d"/>
</g>
<g id="Group_3">
<path id="Vector_9" d="M814.96 0.238567H814.952L806.965 22.0067L783.679 85.4197H819.752L843.038 22.0067H947.119L955.042 0.238567H814.96Z" fill="#10183d"/>
<path id="Vector_10" d="M845.378 54.4638H922.684L930.71 32.4254H853.469L845.378 54.4638Z" fill="#10183d"/>
</g>
</g>
<defs>
<clipPath id="clip0_0_4">
<rect width="955.042" height="85.4196" fill="white"/>
</clipPath>
</defs>
</svg><text x="168" y="344" class="body" font-size="30" font-weight="500" fill="#10183d" opacity="0.5"><tspan x="168" dy="0">느리지만 멈추지 않았던 10년을 보내온</tspan><tspan x="168" dy="42">FECONF가 여러분을 기다립니다.</tspan></text></g>
<rect x="108" y="520" width="2384" height="6692" fill="#ffffff"/><rect x="316" y="732" width="544" height="540" fill="#f3f5fa" opacity="0.72"/><rect x="316" y="1812" width="544" height="540" fill="#f3f5fa" opacity="0.72"/><rect x="316" y="2892" width="544" height="540" fill="#f3f5fa" opacity="0.72"/><rect x="316" y="3972" width="544" height="540" fill="#f3f5fa" opacity="0.72"/><rect x="316" y="5052" width="544" height="540" fill="#f3f5fa" opacity="0.72"/><rect x="316" y="6132" width="544" height="540" fill="#f3f5fa" opacity="0.72"/><rect x="860" y="1272" width="544" height="540" fill="#f3f5fa" opacity="0.72"/><rect x="860" y="2352" width="544" height="540" fill="#f3f5fa" opacity="0.72"/><rect x="860" y="3432" width="544" height="540" fill="#f3f5fa" opacity="0.72"/><rect x="860" y="4512" width="544" height="540" fill="#f3f5fa" opacity="0.72"/><rect x="860" y="5592" width="544" height="540" fill="#f3f5fa" opacity="0.72"/><rect x="860" y="6672" width="544" height="540" fill="#f3f5fa" opacity="0.72"/><rect x="1404" y="732" width="544" height="1080" fill="#f3f5fa" opacity="0.72"/><rect x="1404" y="2082" width="544" height="180" fill="#f3f5fa" opacity="0.72"/><rect x="1404" y="2532" width="544" height="180" fill="#f3f5fa" opacity="0.72"/><rect x="1404" y="2982" width="544" height="180" fill="#f3f5fa" opacity="0.72"/><rect x="1404" y="3432" width="544" height="180" fill="#f3f5fa" opacity="0.72"/><rect x="1404" y="3882" width="544" height="3330" fill="#f3f5fa" opacity="0.72"/><rect x="1948" y="732" width="544" height="1080" fill="#f3f5fa" opacity="0.72"/><rect x="1948" y="2082" width="544" height="180" fill="#f3f5fa" opacity="0.72"/><rect x="1948" y="2532" width="544" height="180" fill="#f3f5fa" opacity="0.72"/><rect x="1948" y="2982" width="544" height="180" fill="#f3f5fa" opacity="0.72"/><rect x="1948" y="3432" width="544" height="180" fill="#f3f5fa" opacity="0.72"/><rect x="1948" y="3882" width="544" height="3330" fill="#f3f5fa" opacity="0.72"/><rect x="108" y="520" width="208" height="212" fill="#ffffff"/><rect x="316" y="520" width="544" height="108" fill="#ffffff"/><text x="350" y="586" class="display" font-size="40" font-weight="600" fill="#10183d">Auditorium</text><rect x="860" y="520" width="544" height="108" fill="#ffffff"/><text x="894" y="586" class="display" font-size="40" font-weight="600" fill="#10183d">Conference B</text><rect x="1404" y="520" width="1088" height="108" fill="#ffffff"/><text x="1438" y="586" class="display" font-size="40" font-weight="600" fill="#10183d">Conference A</text><rect x="316" y="628" width="544" height="104" fill="#ffffff"/><text x="350" y="690" class="body" font-size="34" font-weight="500" fill="#10183d">session A</text><rect x="860" y="628" width="544" height="104" fill="#ffffff"/><text x="894" y="690" class="body" font-size="34" font-weight="500" fill="#10183d">session B</text><rect x="1404" y="628" width="544" height="104" fill="#ffffff"/><text x="1438" y="690" class="body" font-size="34" font-weight="500" fill="#10183d">Talk 1</text><rect x="1948" y="628" width="544" height="104" fill="#ffffff"/><text x="1982" y="690" class="body" font-size="34" font-weight="500" fill="#10183d">Talk 2</text><line x1="108" y1="628" x2="2492" y2="628" stroke="url(#fadeX)" stroke-width="1"/><line x1="108" y1="732" x2="2492" y2="732" stroke="url(#fadeX)" stroke-width="1"/><line x1="108" y1="7212" x2="2492" y2="7212" stroke="url(#fadeX)" stroke-width="1"/><line x1="108" y1="1272" x2="2492" y2="1272" stroke="url(#fadeX)" stroke-width="1"/><text x="272" y="1312" class="mono" font-size="22" font-weight="700" fill="#10183d" opacity="0.52" text-anchor="end">11:30</text><line x1="108" y1="1812" x2="2492" y2="1812" stroke="url(#fadeX)" stroke-width="1"/><text x="272" y="1852" class="mono" font-size="22" font-weight="700" fill="#10183d" opacity="0.52" text-anchor="end">12:00</text><line x1="108" y1="2352" x2="2492" y2="2352" stroke="url(#fadeX)" stroke-width="1"/><text x="272" y="2392" class="mono" font-size="22" font-weight="700" fill="#10183d" opacity="0.52" text-anchor="end">12:30</text><line x1="108" y1="2892" x2="2492" y2="2892" stroke="url(#fadeX)" stroke-width="1"/><text x="272" y="2932" class="mono" font-size="22" font-weight="700" fill="#10183d" opacity="0.52" text-anchor="end">13:00</text><line x1="108" y1="3432" x2="2492" y2="3432" stroke="url(#fadeX)" stroke-width="1"/><text x="272" y="3472" class="mono" font-size="22" font-weight="700" fill="#10183d" opacity="0.52" text-anchor="end">13:30</text><line x1="108" y1="3972" x2="2492" y2="3972" stroke="url(#fadeX)" stroke-width="1"/><text x="272" y="4012" class="mono" font-size="22" font-weight="700" fill="#10183d" opacity="0.52" text-anchor="end">14:00</text><line x1="108" y1="4512" x2="2492" y2="4512" stroke="url(#fadeX)" stroke-width="1"/><text x="272" y="4552" class="mono" font-size="22" font-weight="700" fill="#10183d" opacity="0.52" text-anchor="end">14:30</text><line x1="108" y1="5052" x2="2492" y2="5052" stroke="url(#fadeX)" stroke-width="1"/><text x="272" y="5092" class="mono" font-size="22" font-weight="700" fill="#10183d" opacity="0.52" text-anchor="end">15:00</text><line x1="108" y1="5592" x2="2492" y2="5592" stroke="url(#fadeX)" stroke-width="1"/><text x="272" y="5632" class="mono" font-size="22" font-weight="700" fill="#10183d" opacity="0.52" text-anchor="end">15:30</text><line x1="108" y1="6132" x2="2492" y2="6132" stroke="url(#fadeX)" stroke-width="1"/><text x="272" y="6172" class="mono" font-size="22" font-weight="700" fill="#10183d" opacity="0.52" text-anchor="end">16:00</text><line x1="108" y1="6672" x2="2492" y2="6672" stroke="url(#fadeX)" stroke-width="1"/><text x="272" y="6712" class="mono" font-size="22" font-weight="700" fill="#10183d" opacity="0.52" text-anchor="end">16:30</text><text x="272" y="772" class="mono" font-size="22" font-weight="700" fill="#10183d" opacity="0.52" text-anchor="end">11:00</text><line x1="316" y1="520" x2="316" y2="7212" stroke="#d4daed" stroke-width="1"/><line x1="860" y1="520" x2="860" y2="7212" stroke="#d4daed" stroke-width="1"/><line x1="1404" y1="520" x2="1404" y2="7212" stroke="#d4daed" stroke-width="1"/><line x1="1948" y1="520" x2="1948" y2="7212" stroke="#d4daed" stroke-width="1"/><line x1="2492" y1="520" x2="2492" y2="7212" stroke="#d4daed" stroke-width="1"/>
<g class="session-block"><rect x="860" y="732" width="544" height="474" class="block-surface" fill="#ffffff"/><line x1="860" y1="732" x2="1404" y2="732" stroke="#d4daed" stroke-width="1"/><line x1="860" y1="732" x2="860" y2="1206" stroke="#d4daed" stroke-width="1"/><line x1="1404" y1="732" x2="1404" y2="1206" stroke="#d4daed" stroke-width="1"/><text x="896" y="772" class="mono" font-size="20" font-weight="700" fill="#10183d" opacity="0.5">11:00 - 11:30</text><text x="1368" y="772" class="body" font-size="20" font-weight="500" fill="#10183d" opacity="0.42" text-anchor="end">session B</text><text x="896" y="828" class="body" font-size="36" font-weight="700" fill="#10183d"><tspan x="896" dy="0">웹처럼 배포하고, 앱처럼</tspan><tspan x="896" dy="46">그리기: 당근 앱에 Lynx</tspan><tspan x="896" dy="46">도입하기</tspan></text><text x="896" y="988" class="body" font-size="19" font-weight="500" fill="#10183d" opacity="0.58"><tspan x="896" dy="0">당근 앱에서 WebView의 유연함은 유지하면서 더 빠른 화면</tspan><tspan x="896" dy="27">경험을 만들기 위해 Lynx를 도입한 과정을 공유합니다. URL</tspan><tspan x="896" dy="27">기반 화면 제공, 네이티브 인증 체계와의 연결, Instant</tspan><tspan x="896" dy="27">First-Frame Rendering을 실제 서비스에 적용하며 얻은</tspan><tspan x="896" dy="27">고민을 다룹니다.</tspan></text><text x="896" y="1172" class="body" font-size="21" font-weight="600" fill="#10183d" opacity="0.56"><tspan x="896" dy="0">원지혁</tspan></text></g><g class="session-block"><rect x="316" y="1272" width="544" height="401" class="block-surface" fill="#ffffff"/><line x1="316" y1="1272" x2="860" y2="1272" stroke="#d4daed" stroke-width="1"/><line x1="316" y1="1272" x2="316" y2="1673" stroke="#d4daed" stroke-width="1"/><line x1="860" y1="1272" x2="860" y2="1673" stroke="#d4daed" stroke-width="1"/><text x="352" y="1312" class="mono" font-size="20" font-weight="700" fill="#10183d" opacity="0.5">11:30 - 12:00</text><text x="824" y="1312" class="body" font-size="20" font-weight="500" fill="#10183d" opacity="0.42" text-anchor="end">session A</text><text x="352" y="1368" class="body" font-size="36" font-weight="700" fill="#10183d"><tspan x="352" dy="0">절대 지워지지 않는 E2E 테스트</tspan><tspan x="352" dy="46">만들기</tspan></text><text x="352" y="1482" class="body" font-size="19" font-weight="500" fill="#10183d" opacity="0.58"><tspan x="352" dy="0">지워지거나 깨지지 않는 E2E 테스트를 만들기 위해 필요한</tspan><tspan x="352" dy="27">워크플로우와 안정화 경험을 소개합니다. 디바이스 팜 구축,</tspan><tspan x="352" dy="27">Node.js 최신 API, 새로운 JavaScript 문법을 활용해</tspan><tspan x="352" dy="27">테스트 유지보수 문제를 풀어간 과정을 공유합니다.</tspan></text><text x="352" y="1639" class="body" font-size="21" font-weight="600" fill="#10183d" opacity="0.56"><tspan x="352" dy="0">김지원, 박서진</tspan></text></g><g class="session-block"><rect x="860" y="1812" width="544" height="401" class="block-surface" fill="#ffffff"/><line x1="860" y1="1812" x2="1404" y2="1812" stroke="#d4daed" stroke-width="1"/><line x1="860" y1="1812" x2="860" y2="2213" stroke="#d4daed" stroke-width="1"/><line x1="1404" y1="1812" x2="1404" y2="2213" stroke="#d4daed" stroke-width="1"/><text x="896" y="1852" class="mono" font-size="20" font-weight="700" fill="#10183d" opacity="0.5">12:00 - 12:30</text><text x="1368" y="1852" class="body" font-size="20" font-weight="500" fill="#10183d" opacity="0.42" text-anchor="end">session B</text><text x="896" y="1908" class="body" font-size="36" font-weight="700" fill="#10183d"><tspan x="896" dy="0">디자인 시스템으로 어디까지 할</tspan><tspan x="896" dy="46">수 있을까?</tspan></text><text x="896" y="2022" class="body" font-size="19" font-weight="500" fill="#10183d" opacity="0.58"><tspan x="896" dy="0">컴포넌트와 패턴을 넘어 디자인 시스템이 제품 개발</tspan><tspan x="896" dy="27">워크플로우로 확장되는 과정을 이야기합니다. 문서를</tspan><tspan x="896" dy="27">기준으로 코드 사용을 살피고, 여러 저장소의 업데이트를</tspan><tspan x="896" dy="27">돕고, AI와 함께 프로토타입을 만드는 시도를 소개합니다.</tspan></text><text x="896" y="2179" class="body" font-size="21" font-weight="600" fill="#10183d" opacity="0.56"><tspan x="896" dy="0">정현수</tspan></text></g><g class="session-block"><rect x="316" y="2352" width="544" height="401" class="block-surface" fill="#ffffff"/><line x1="316" y1="2352" x2="860" y2="2352" stroke="#d4daed" stroke-width="1"/><line x1="316" y1="2352" x2="316" y2="2753" stroke="#d4daed" stroke-width="1"/><line x1="860" y1="2352" x2="860" y2="2753" stroke="#d4daed" stroke-width="1"/><text x="352" y="2392" class="mono" font-size="20" font-weight="700" fill="#10183d" opacity="0.5">12:30 - 13:00</text><text x="824" y="2392" class="body" font-size="20" font-weight="500" fill="#10183d" opacity="0.42" text-anchor="end">session A</text><text x="352" y="2448" class="body" font-size="36" font-weight="700" fill="#10183d"><tspan x="352" dy="0">AI가 만든 리포 1,000개를</tspan><tspan x="352" dy="46">모노리포처럼 관리하기</tspan></text><text x="352" y="2562" class="body" font-size="19" font-weight="500" fill="#10183d" opacity="0.58"><tspan x="352" dy="0">AI가 만든 코드 저장소가 빠르게 늘어나는 환경에서 제품의</tspan><tspan x="352" dy="27">품질 하한선을 어떻게 지킬지 다룹니다. 1,000개의</tspan><tspan x="352" dy="27">폴리리포를 모노리포처럼 다루기 위해 만든 도구 Canopy와</tspan><tspan x="352" dy="27">플랫폼 엔지니어링 관점의 고민을 공유합니다.</tspan></text><text x="352" y="2719" class="body" font-size="21" font-weight="600" fill="#10183d" opacity="0.56"><tspan x="352" dy="0">이호연, 우창완</tspan></text></g><g class="session-block"><rect x="860" y="2892" width="544" height="420" class="block-surface" fill="#ffffff"/><line x1="860" y1="2892" x2="1404" y2="2892" stroke="#d4daed" stroke-width="1"/><line x1="860" y1="2892" x2="860" y2="3312" stroke="#d4daed" stroke-width="1"/><line x1="1404" y1="2892" x2="1404" y2="3312" stroke="#d4daed" stroke-width="1"/><text x="896" y="2932" class="mono" font-size="20" font-weight="700" fill="#10183d" opacity="0.5">13:00 - 13:30</text><text x="1368" y="2932" class="body" font-size="20" font-weight="500" fill="#10183d" opacity="0.42" text-anchor="end">session B</text><text x="896" y="2988" class="body" font-size="36" font-weight="700" fill="#10183d"><tspan x="896" dy="0">수백개 패키지의 모노레포와</tspan><tspan x="896" dy="46">함께 micro frontends로</tspan><tspan x="896" dy="46">전환하기</tspan></text><text x="896" y="3148" class="body" font-size="19" font-weight="500" fill="#10183d" opacity="0.58"><tspan x="896" dy="0">미리캔버스 프론트엔드팀이 모놀리스 환경에서 모노레포</tspan><tspan x="896" dy="27">플랫폼을 구축하고, 그 위에서 마이크로서비스와 micro</tspan><tspan x="896" dy="27">frontends 구조로 전환해 간 과정을 소개합니다.</tspan></text><text x="896" y="3278" class="body" font-size="21" font-weight="600" fill="#10183d" opacity="0.56"><tspan x="896" dy="0">김종현</tspan></text></g><g class="session-block"><rect x="316" y="3432" width="544" height="447" class="block-surface" fill="#ffffff"/><line x1="316" y1="3432" x2="860" y2="3432" stroke="#d4daed" stroke-width="1"/><line x1="316" y1="3432" x2="316" y2="3879" stroke="#d4daed" stroke-width="1"/><line x1="860" y1="3432" x2="860" y2="3879" stroke="#d4daed" stroke-width="1"/><text x="352" y="3472" class="mono" font-size="20" font-weight="700" fill="#10183d" opacity="0.5">13:30 - 14:00</text><text x="824" y="3472" class="body" font-size="20" font-weight="500" fill="#10183d" opacity="0.42" text-anchor="end">session A</text><text x="352" y="3528" class="body" font-size="36" font-weight="700" fill="#10183d"><tspan x="352" dy="0">React Native에 현대적인</tspan><tspan x="352" dy="46">빌드 도구 더하기: Rollipop</tspan><tspan x="352" dy="46">구현기</tspan></text><text x="352" y="3688" class="body" font-size="19" font-weight="500" fill="#10183d" opacity="0.58"><tspan x="352" dy="0">React Native에 현대적인 프론트엔드 빌드 도구를 적용하기</tspan><tspan x="352" dy="27">위해 Rolldown 기반 번들러 Rollipop을 구현한 과정을</tspan><tspan x="352" dy="27">소개합니다. Metro의 개발 경험을 유지하면서 성능과</tspan><tspan x="352" dy="27">확장성을 개선하기 위한 설계와 최적화 경험을 공유합니다.</tspan></text><text x="352" y="3845" class="body" font-size="21" font-weight="600" fill="#10183d" opacity="0.56"><tspan x="352" dy="0">이근혁</tspan></text></g><g class="session-block"><rect x="860" y="3972" width="544" height="447" class="block-surface" fill="#ffffff"/><line x1="860" y1="3972" x2="1404" y2="3972" stroke="#d4daed" stroke-width="1"/><line x1="860" y1="3972" x2="860" y2="4419" stroke="#d4daed" stroke-width="1"/><line x1="1404" y1="3972" x2="1404" y2="4419" stroke="#d4daed" stroke-width="1"/><text x="896" y="4012" class="mono" font-size="20" font-weight="700" fill="#10183d" opacity="0.5">14:00 - 14:30</text><text x="1368" y="4012" class="body" font-size="20" font-weight="500" fill="#10183d" opacity="0.42" text-anchor="end">session B</text><text x="896" y="4068" class="body" font-size="36" font-weight="700" fill="#10183d"><tspan x="896" dy="0">Lighthouse는 100점인데 왜</tspan><tspan x="896" dy="46">느릴까? - 미리캔버스로 짚어본</tspan><tspan x="896" dy="46">성능 개선 포인트</tspan></text><text x="896" y="4228" class="body" font-size="19" font-weight="500" fill="#10183d" opacity="0.58"><tspan x="896" dy="0">Lighthouse 점수만으로 설명되지 않는 실제 사용자 체감</tspan><tspan x="896" dy="27">성능을 미리캔버스 사례로 짚어봅니다. 에디터처럼 사용자가</tspan><tspan x="896" dy="27">오래 머물며 계속 조작하는 서비스에서 로딩 이후의 느림을</tspan><tspan x="896" dy="27">어떻게 측정하고 개선했는지 공유합니다.</tspan></text><text x="896" y="4385" class="body" font-size="21" font-weight="600" fill="#10183d" opacity="0.56"><tspan x="896" dy="0">김해동</tspan></text></g><g class="session-block"><rect x="316" y="4512" width="544" height="401" class="block-surface" fill="#ffffff"/><line x1="316" y1="4512" x2="860" y2="4512" stroke="#d4daed" stroke-width="1"/><line x1="316" y1="4512" x2="316" y2="4913" stroke="#d4daed" stroke-width="1"/><line x1="860" y1="4512" x2="860" y2="4913" stroke="#d4daed" stroke-width="1"/><text x="352" y="4552" class="mono" font-size="20" font-weight="700" fill="#10183d" opacity="0.5">14:30 - 15:00</text><text x="824" y="4552" class="body" font-size="20" font-weight="500" fill="#10183d" opacity="0.42" text-anchor="end">session A</text><text x="352" y="4608" class="body" font-size="36" font-weight="700" fill="#10183d"><tspan x="352" dy="0">오프라인 우선 Micro</tspan><tspan x="352" dy="46">Frontend 구축기</tspan></text><text x="352" y="4722" class="body" font-size="19" font-weight="500" fill="#10183d" opacity="0.58"><tspan x="352" dy="0">오프라인 우선 웹 앱을 위해 아키텍처를 구성한 경험을</tspan><tspan x="352" dy="27">소개합니다. 멀티플랫폼에서 같은 프론트엔드 코드를</tspan><tspan x="352" dy="27">동작하게 만드는 웹뷰 번들 개념과 Micro Frontend를</tspan><tspan x="352" dy="27">안전하게 운영하기 위한 전략을 다룹니다.</tspan></text><text x="352" y="4879" class="body" font-size="21" font-weight="600" fill="#10183d" opacity="0.56"><tspan x="352" dy="0">나석주</tspan></text></g><g class="session-block"><rect x="860" y="5052" width="544" height="355" class="block-surface" fill="#ffffff"/><line x1="860" y1="5052" x2="1404" y2="5052" stroke="#d4daed" stroke-width="1"/><line x1="860" y1="5052" x2="860" y2="5407" stroke="#d4daed" stroke-width="1"/><line x1="1404" y1="5052" x2="1404" y2="5407" stroke="#d4daed" stroke-width="1"/><text x="896" y="5092" class="mono" font-size="20" font-weight="700" fill="#10183d" opacity="0.5">15:00 - 15:30</text><text x="1368" y="5092" class="body" font-size="20" font-weight="500" fill="#10183d" opacity="0.42" text-anchor="end">session B</text><text x="896" y="5148" class="body" font-size="36" font-weight="700" fill="#10183d"><tspan x="896" dy="0">Agent First CMS</tspan></text><text x="896" y="5216" class="body" font-size="19" font-weight="500" fill="#10183d" opacity="0.58"><tspan x="896" dy="0">AI 에이전트를 활용해 HTML 기반 콘텐츠를 제작하는</tspan><tspan x="896" dy="27">CMS를 소개합니다. 사내 적용 경험을 바탕으로 에이전트</tspan><tspan x="896" dy="27">기반 백오피스를 만들 때 도움이 될 설계와 운영 포인트를</tspan><tspan x="896" dy="27">공유합니다.</tspan></text><text x="896" y="5373" class="body" font-size="21" font-weight="600" fill="#10183d" opacity="0.56"><tspan x="896" dy="0">이재승</tspan></text></g><g class="session-block"><rect x="316" y="5592" width="544" height="401" class="block-surface" fill="#ffffff"/><line x1="316" y1="5592" x2="860" y2="5592" stroke="#d4daed" stroke-width="1"/><line x1="316" y1="5592" x2="316" y2="5993" stroke="#d4daed" stroke-width="1"/><line x1="860" y1="5592" x2="860" y2="5993" stroke="#d4daed" stroke-width="1"/><text x="352" y="5632" class="mono" font-size="20" font-weight="700" fill="#10183d" opacity="0.5">15:30 - 16:00</text><text x="824" y="5632" class="body" font-size="20" font-weight="500" fill="#10183d" opacity="0.42" text-anchor="end">session A</text><text x="352" y="5688" class="body" font-size="36" font-weight="700" fill="#10183d"><tspan x="352" dy="0">조합이 폭발하는 디자인 시스템,</tspan><tspan x="352" dy="46">이걸 눈으로도 테스트하라고요?</tspan></text><text x="352" y="5802" class="body" font-size="19" font-weight="500" fill="#10183d" opacity="0.58"><tspan x="352" dy="0">props, 서브컴포넌트, 다크모드, pseudo state가 만드는</tspan><tspan x="352" dy="27">수많은 UI 상태를 어떻게 검증할지 이야기합니다. 토스</tspan><tspan x="352" dy="27">디자인 시스템 TDS에서 조합적 폭발이 발생하는 컴포넌트의</tspan><tspan x="352" dy="27">시각 회귀 테스트를 운영하며 얻은 고민을 공유합니다.</tspan></text><text x="352" y="5959" class="body" font-size="21" font-weight="600" fill="#10183d" opacity="0.56"><tspan x="352" dy="0">유길종</tspan></text></g><g class="session-block"><rect x="860" y="6132" width="544" height="493" class="block-surface" fill="#ffffff"/><line x1="860" y1="6132" x2="1404" y2="6132" stroke="#d4daed" stroke-width="1"/><line x1="860" y1="6132" x2="860" y2="6625" stroke="#d4daed" stroke-width="1"/><line x1="1404" y1="6132" x2="1404" y2="6625" stroke="#d4daed" stroke-width="1"/><text x="896" y="6172" class="mono" font-size="20" font-weight="700" fill="#10183d" opacity="0.5">16:00 - 16:30</text><text x="1368" y="6172" class="body" font-size="20" font-weight="500" fill="#10183d" opacity="0.42" text-anchor="end">session B</text><text x="896" y="6228" class="body" font-size="36" font-weight="700" fill="#10183d"><tspan x="896" dy="0">AI 제품의 품질과 비용을</tspan><tspan x="896" dy="46">프론트엔드에서 설계하기:</tspan><tspan x="896" dy="46">이미지 한 장을 편집 가능한</tspan><tspan x="896" dy="46">레이어로 되돌리기</tspan></text><text x="896" y="6434" class="body" font-size="19" font-weight="500" fill="#10183d" opacity="0.58"><tspan x="896" dy="0">이미지 한 장을 편집 가능한 레이어로 되돌릴 때 생성형 AI와</tspan><tspan x="896" dy="27">결정적 코드의 역할을 어떻게 나눌지 다룹니다. 스키마 계약,</tspan><tspan x="896" dy="27">WASM, WebGL, WebGPU를 활용해 프론트엔드 설계가</tspan><tspan x="896" dy="27">품질과 지연, 비용에 미치는 영향을 소개합니다.</tspan></text><text x="896" y="6591" class="body" font-size="21" font-weight="600" fill="#10183d" opacity="0.56"><tspan x="896" dy="0">김민성</tspan></text></g><g class="session-block"><rect x="316" y="6672" width="544" height="493" class="block-surface" fill="#ffffff"/><line x1="316" y1="6672" x2="860" y2="6672" stroke="#d4daed" stroke-width="1"/><line x1="316" y1="6672" x2="316" y2="7165" stroke="#d4daed" stroke-width="1"/><line x1="860" y1="6672" x2="860" y2="7165" stroke="#d4daed" stroke-width="1"/><text x="352" y="6712" class="mono" font-size="20" font-weight="700" fill="#10183d" opacity="0.5">16:30 - 17:00</text><text x="824" y="6712" class="body" font-size="20" font-weight="500" fill="#10183d" opacity="0.42" text-anchor="end">session A</text><text x="352" y="6768" class="body" font-size="36" font-weight="700" fill="#10183d"><tspan x="352" dy="0">붙어야 할 때와 떨어져야 할 때:</tspan><tspan x="352" dy="46">Module Federation과 Web</tspan><tspan x="352" dy="46">Component로 보는 결합의</tspan><tspan x="352" dy="46">트레이드오프</tspan></text><text x="352" y="6974" class="body" font-size="19" font-weight="500" fill="#10183d" opacity="0.58"><tspan x="352" dy="0">여러 제품에 배포되는 크로스앱 UI를 운영하며 Module</tspan><tspan x="352" dy="27">Federation과 Web Component 사이에서 마주한</tspan><tspan x="352" dy="27">트레이드오프를 다룹니다. 의존성 충돌, 배포 통제, 공유</tspan><tspan x="352" dy="27">경계를 다시 설계하게 된 실제 경험을 공유합니다.</tspan></text><text x="352" y="7131" class="body" font-size="21" font-weight="600" fill="#10183d" opacity="0.56"><tspan x="352" dy="0">진유림</tspan></text></g><g class="session-block"><rect x="1404" y="1812" width="544" height="270" class="block-surface" fill="#ffffff"/><line x1="1404" y1="1812" x2="1948" y2="1812" stroke="#d4daed" stroke-width="1"/><line x1="1404" y1="1812" x2="1404" y2="2082" stroke="#d4daed" stroke-width="1"/><line x1="1948" y1="1812" x2="1948" y2="2082" stroke="#d4daed" stroke-width="1"/><line x1="1404" y1="2082" x2="1948" y2="2082" stroke="#d4daed" stroke-width="1"/><text x="1436" y="1852" class="mono" font-size="20" font-weight="700" fill="#10183d" opacity="0.5">12:00 - 12:15</text><text x="1916" y="1852" class="body" font-size="20" font-weight="500" fill="#10183d" opacity="0.42" text-anchor="end">Talk 1</text><text x="1436" y="1908" class="body" font-size="32" font-weight="700" fill="#10183d"><tspan x="1436" dy="0">Web Component 그리고</tspan><tspan x="1436" dy="41">Shadow DOM</tspan></text><text x="1436" y="2048" class="body" font-size="21" font-weight="600" fill="#10183d" opacity="0.56"><tspan x="1436" dy="0">정도영</tspan></text></g><g class="session-block"><rect x="1948" y="1812" width="544" height="270" class="block-surface" fill="#ffffff"/><line x1="1948" y1="1812" x2="2492" y2="1812" stroke="#d4daed" stroke-width="1"/><line x1="1948" y1="1812" x2="1948" y2="2082" stroke="#d4daed" stroke-width="1"/><line x1="2492" y1="1812" x2="2492" y2="2082" stroke="#d4daed" stroke-width="1"/><line x1="1948" y1="2082" x2="2492" y2="2082" stroke="#d4daed" stroke-width="1"/><text x="1980" y="1852" class="mono" font-size="20" font-weight="700" fill="#10183d" opacity="0.5">12:00 - 12:15</text><text x="2460" y="1852" class="body" font-size="20" font-weight="500" fill="#10183d" opacity="0.42" text-anchor="end">Talk 2</text><text x="1980" y="1908" class="body" font-size="32" font-weight="700" fill="#10183d"><tspan x="1980" dy="0">당근마켓 3탭 동네지도 개발</tspan></text><text x="1980" y="2048" class="body" font-size="21" font-weight="600" fill="#10183d" opacity="0.56"><tspan x="1980" dy="0">최하영</tspan></text></g><g class="session-block"><rect x="1404" y="2262" width="544" height="270" class="block-surface" fill="#ffffff"/><line x1="1404" y1="2262" x2="1948" y2="2262" stroke="#d4daed" stroke-width="1"/><line x1="1404" y1="2262" x2="1404" y2="2532" stroke="#d4daed" stroke-width="1"/><line x1="1948" y1="2262" x2="1948" y2="2532" stroke="#d4daed" stroke-width="1"/><line x1="1404" y1="2532" x2="1948" y2="2532" stroke="#d4daed" stroke-width="1"/><text x="1436" y="2302" class="mono" font-size="20" font-weight="700" fill="#10183d" opacity="0.5">12:25 - 12:40</text><text x="1916" y="2302" class="body" font-size="20" font-weight="500" fill="#10183d" opacity="0.42" text-anchor="end">Talk 1</text><text x="1436" y="2358" class="body" font-size="28" font-weight="700" fill="#10183d"><tspan x="1436" dy="0">우리의 Nitro Module은 당신의</tspan><tspan x="1436" dy="36">Native Module보다 아름답다</tspan></text><text x="1436" y="2498" class="body" font-size="21" font-weight="600" fill="#10183d" opacity="0.56"><tspan x="1436" dy="0">이현우</tspan></text></g><g class="session-block"><rect x="1948" y="2262" width="544" height="270" class="block-surface" fill="#ffffff"/><line x1="1948" y1="2262" x2="2492" y2="2262" stroke="#d4daed" stroke-width="1"/><line x1="1948" y1="2262" x2="1948" y2="2532" stroke="#d4daed" stroke-width="1"/><line x1="2492" y1="2262" x2="2492" y2="2532" stroke="#d4daed" stroke-width="1"/><line x1="1948" y1="2532" x2="2492" y2="2532" stroke="#d4daed" stroke-width="1"/><text x="1980" y="2302" class="mono" font-size="20" font-weight="700" fill="#10183d" opacity="0.5">12:25 - 12:40</text><text x="2460" y="2302" class="body" font-size="20" font-weight="500" fill="#10183d" opacity="0.42" text-anchor="end">Talk 2</text><text x="1980" y="2358" class="body" font-size="32" font-weight="700" fill="#10183d"><tspan x="1980" dy="0">노래 가사가 쏟아지고,</tspan><tspan x="1980" dy="41">부딪히고, 쌓입니다</tspan></text><text x="1980" y="2498" class="body" font-size="21" font-weight="600" fill="#10183d" opacity="0.56"><tspan x="1980" dy="0">임민주</tspan></text></g><g class="session-block"><rect x="1404" y="2712" width="544" height="270" class="block-surface" fill="#ffffff"/><line x1="1404" y1="2712" x2="1948" y2="2712" stroke="#d4daed" stroke-width="1"/><line x1="1404" y1="2712" x2="1404" y2="2982" stroke="#d4daed" stroke-width="1"/><line x1="1948" y1="2712" x2="1948" y2="2982" stroke="#d4daed" stroke-width="1"/><line x1="1404" y1="2982" x2="1948" y2="2982" stroke="#d4daed" stroke-width="1"/><text x="1436" y="2752" class="mono" font-size="20" font-weight="700" fill="#10183d" opacity="0.5">12:50 - 13:05</text><text x="1916" y="2752" class="body" font-size="20" font-weight="500" fill="#10183d" opacity="0.42" text-anchor="end">Talk 1</text><text x="1436" y="2808" class="body" font-size="28" font-weight="700" fill="#10183d"><tspan x="1436" dy="0">React Native 프로젝트를</tspan><tspan x="1436" dy="36">Expo 로 마이그레이션 한 썰</tspan><tspan x="1436" dy="36">풉니다</tspan></text><text x="1436" y="2948" class="body" font-size="21" font-weight="600" fill="#10183d" opacity="0.56"><tspan x="1436" dy="0">박소미</tspan></text></g><g class="session-block"><rect x="1948" y="2712" width="544" height="270" class="block-surface" fill="#ffffff"/><line x1="1948" y1="2712" x2="2492" y2="2712" stroke="#d4daed" stroke-width="1"/><line x1="1948" y1="2712" x2="1948" y2="2982" stroke="#d4daed" stroke-width="1"/><line x1="2492" y1="2712" x2="2492" y2="2982" stroke="#d4daed" stroke-width="1"/><line x1="1948" y1="2982" x2="2492" y2="2982" stroke="#d4daed" stroke-width="1"/><text x="1980" y="2752" class="mono" font-size="20" font-weight="700" fill="#10183d" opacity="0.5">12:50 - 13:05</text><text x="2460" y="2752" class="body" font-size="20" font-weight="500" fill="#10183d" opacity="0.42" text-anchor="end">Talk 2</text><text x="1980" y="2808" class="body" font-size="32" font-weight="700" fill="#10183d"><tspan x="1980" dy="0">Chrome OS, 궁극의 개발</tspan><tspan x="1980" dy="41">운영체제</tspan></text><text x="1980" y="2948" class="body" font-size="21" font-weight="600" fill="#10183d" opacity="0.56"><tspan x="1980" dy="0">김기범</tspan></text></g><g class="session-block"><rect x="1404" y="3162" width="544" height="270" class="block-surface" fill="#ffffff"/><line x1="1404" y1="3162" x2="1948" y2="3162" stroke="#d4daed" stroke-width="1"/><line x1="1404" y1="3162" x2="1404" y2="3432" stroke="#d4daed" stroke-width="1"/><line x1="1948" y1="3162" x2="1948" y2="3432" stroke="#d4daed" stroke-width="1"/><line x1="1404" y1="3432" x2="1948" y2="3432" stroke="#d4daed" stroke-width="1"/><text x="1436" y="3202" class="mono" font-size="20" font-weight="700" fill="#10183d" opacity="0.5">13:15 - 13:30</text><text x="1916" y="3202" class="body" font-size="20" font-weight="500" fill="#10183d" opacity="0.42" text-anchor="end">Talk 1</text><text x="1436" y="3258" class="body" font-size="32" font-weight="700" fill="#10183d"><tspan x="1436" dy="0">AI와 똥손 개발자를 위한</tspan><tspan x="1436" dy="41">디자인 가이드</tspan></text><text x="1436" y="3398" class="body" font-size="21" font-weight="600" fill="#10183d" opacity="0.56"><tspan x="1436" dy="0">김해준</tspan></text></g><g class="session-block"><rect x="1948" y="3162" width="544" height="270" class="block-surface" fill="#ffffff"/><line x1="1948" y1="3162" x2="2492" y2="3162" stroke="#d4daed" stroke-width="1"/><line x1="1948" y1="3162" x2="1948" y2="3432" stroke="#d4daed" stroke-width="1"/><line x1="2492" y1="3162" x2="2492" y2="3432" stroke="#d4daed" stroke-width="1"/><line x1="1948" y1="3432" x2="2492" y2="3432" stroke="#d4daed" stroke-width="1"/><text x="1980" y="3202" class="mono" font-size="20" font-weight="700" fill="#10183d" opacity="0.5">13:15 - 13:30</text><text x="2460" y="3202" class="body" font-size="20" font-weight="500" fill="#10183d" opacity="0.42" text-anchor="end">Talk 2</text><text x="1980" y="3258" class="body" font-size="28" font-weight="700" fill="#10183d"><tspan x="1980" dy="0">따라잡기보다 버리기, 프론트엔드</tspan><tspan x="1980" dy="36">개발자에게 남는 판단력</tspan></text><text x="1980" y="3398" class="body" font-size="21" font-weight="600" fill="#10183d" opacity="0.56"><tspan x="1980" dy="0">심윤섭</tspan></text></g><g class="session-block"><rect x="1404" y="3612" width="544" height="270" class="block-surface" fill="#ffffff"/><line x1="1404" y1="3612" x2="1948" y2="3612" stroke="#d4daed" stroke-width="1"/><line x1="1404" y1="3612" x2="1404" y2="3882" stroke="#d4daed" stroke-width="1"/><line x1="1948" y1="3612" x2="1948" y2="3882" stroke="#d4daed" stroke-width="1"/><line x1="1404" y1="3882" x2="1948" y2="3882" stroke="#d4daed" stroke-width="1"/><text x="1436" y="3652" class="mono" font-size="20" font-weight="700" fill="#10183d" opacity="0.5">13:40 - 13:55</text><text x="1916" y="3652" class="body" font-size="20" font-weight="500" fill="#10183d" opacity="0.42" text-anchor="end">Talk 1</text><text x="1436" y="3708" class="body" font-size="26" font-weight="700" fill="#10183d"><tspan x="1436" dy="0">AI는 디자인보다 데이터를 해석한다</tspan><tspan x="1436" dy="33">- 정확한 코드 생성을 위한 데이터</tspan><tspan x="1436" dy="33">품질 개선과 도구 제작 경험</tspan></text><text x="1436" y="3848" class="body" font-size="21" font-weight="600" fill="#10183d" opacity="0.56"><tspan x="1436" dy="0">김인숙</tspan></text></g><g class="session-block"><rect x="1948" y="3612" width="544" height="270" class="block-surface" fill="#ffffff"/><line x1="1948" y1="3612" x2="2492" y2="3612" stroke="#d4daed" stroke-width="1"/><line x1="1948" y1="3612" x2="1948" y2="3882" stroke="#d4daed" stroke-width="1"/><line x1="2492" y1="3612" x2="2492" y2="3882" stroke="#d4daed" stroke-width="1"/><line x1="1948" y1="3882" x2="2492" y2="3882" stroke="#d4daed" stroke-width="1"/><text x="1980" y="3652" class="mono" font-size="20" font-weight="700" fill="#10183d" opacity="0.5">13:40 - 13:55</text><text x="2460" y="3652" class="body" font-size="20" font-weight="500" fill="#10183d" opacity="0.42" text-anchor="end">Talk 2</text><text x="1980" y="3708" class="body" font-size="32" font-weight="700" fill="#10183d"><tspan x="1980" dy="0">밤티같은 AI 프론트엔드</tspan><tspan x="1980" dy="41">제대로 만들기</tspan></text><text x="1980" y="3848" class="body" font-size="21" font-weight="600" fill="#10183d" opacity="0.56"><tspan x="1980" dy="0">김승모</tspan></text></g>
</svg>
